<svg width="77" height="77" viewBox="0 0 77 77" fill="none" xmlns="http://www.w3.org/2000/svg">
    <g clip-path="url(#clip0)">
        <path d="M38.5 7.45161C40.5578 7.45161 42.2259 5.78351 42.2259 3.72581C42.2259 1.6681 40.5578 0 38.5 0C36.4423 0 34.7742 1.6681 34.7742 3.72581C34.7742 5.78351 36.4423 7.45161 38.5 7.45161Z" fill="#383A39"/>
        <path d="M38.5 77C40.5578 77 42.2259 75.3319 42.2259 73.2742C42.2259 71.2165 40.5578 69.5484 38.5 69.5484C36.4423 69.5484 34.7742 71.2165 34.7742 73.2742C34.7742 75.3319 36.4423 77 38.5 77Z" fill="#ECEEEE"/>
        <path d="M21.1129 12.0468C23.1706 12.0468 24.8387 10.3787 24.8387 8.32096C24.8387 6.26325 23.1706 4.59515 21.1129 4.59515C19.0552 4.59515 17.3871 6.26325 17.3871 8.32096C17.3871 10.3787 19.0552 12.0468 21.1129 12.0468Z" fill="#77807F"/>
        <path d="M59.1162 66.8161C60.1098 68.5548 59.4888 70.7903 57.7501 71.9081C56.0114 72.9016 53.7759 72.2806 52.6582 70.5419C51.6646 68.8032 52.2856 66.5677 54.0243 65.45C55.763 64.4565 58.1227 65.0774 59.1162 66.8161Z" fill="#F2F4F4"/>
        <path d="M10.1838 17.8839C11.9225 18.8774 12.5435 21.1129 11.55 22.9758C10.5564 24.7145 8.32093 25.3355 6.45802 24.3419C4.71931 23.3484 4.09835 21.1129 5.09189 19.25C6.08544 17.3871 8.44512 16.8903 10.1838 17.8839Z" fill="#9FAAA9"/>
        <path d="M70.542 52.6581C72.2807 53.6516 72.9017 55.8871 71.9081 57.75C70.9146 59.4887 68.6791 60.1097 66.8162 59.1161C65.0775 58.1226 64.4565 55.8871 65.45 54.0242C66.4436 52.2855 68.6791 51.6645 70.542 52.6581Z" fill="#F2F7F7"/>
        <path d="M3.72581 42.2258C5.78351 42.2258 7.45161 40.5577 7.45161 38.5C7.45161 36.4423 5.78351 34.7742 3.72581 34.7742C1.6681 34.7742 0 36.4423 0 38.5C0 40.5577 1.6681 42.2258 3.72581 42.2258Z" fill="#B2BBBA"/>
        <path d="M73.2743 42.2258C75.332 42.2258 77.0001 40.5577 77.0001 38.5C77.0001 36.4423 75.332 34.7742 73.2743 34.7742C71.2166 34.7742 69.5485 36.4423 69.5485 38.5C69.5485 40.5577 71.2166 42.2258 73.2743 42.2258Z" fill="white"/>
        <path d="M6.45803 52.6581C8.19673 51.6645 10.4322 52.2855 11.55 54.0242C12.5435 55.7629 11.9225 57.9984 10.1838 59.1161C8.44512 60.1097 6.20964 59.4887 5.0919 57.75C3.97415 56.0113 4.71932 53.7758 6.45803 52.6581Z" fill="#C5CCCB"/>
        <path d="M66.8162 17.8839C68.5549 16.8903 70.7904 17.5113 71.9081 19.25C72.9017 20.9887 72.2807 23.2242 70.542 24.3419C68.8033 25.3355 66.5678 24.7145 65.45 22.9758C64.4565 21.2371 65.0775 18.8774 66.8162 17.8839Z" fill="black"/>
        <path d="M17.8839 66.8161C18.8775 65.0774 21.1129 64.4565 22.9759 65.45C24.7146 66.4435 25.3355 68.679 24.342 70.5419C23.3484 72.2806 21.113 72.9016 19.25 71.9081C17.5113 70.7903 16.8904 68.5548 17.8839 66.8161Z" fill="#D9DDDD"/>
        <path d="M52.6582 6.45807C53.6517 4.71936 55.8872 4.09839 57.7501 5.09194C59.4888 6.08548 60.1098 8.32097 59.1162 10.1839C58.1227 11.9226 55.8872 12.5435 54.0243 11.55C52.2856 10.5565 51.6646 8.32097 52.6582 6.45807Z" fill="#111111"/>
    </g>
    <defs>
        <clipPath id="clip0">
        <rect width="77" height="77" fill="white"/>
        </clipPath>
    </defs>
</svg>
