<?xml version="1.0" encoding="UTF-8"?>
<svg width="182px" height="34px" viewBox="0 0 182 34" version="1.1" xmlns="http://www.w3.org/2000/svg" xmlns:xlink="http://www.w3.org/1999/xlink">
    <title>logo</title>
    <desc>Created with Sketch.</desc>
    <g id="Page-1" stroke="none" stroke-width="1" fill="none" fill-rule="evenodd">
        <g id="logo">
            <path d="M45.34,24 L45.34,10 L48.56,10 L48.56,21.24 L52.26,21.24 L52.26,10 L55.48,10 L55.48,21.24 L59.2,21.24 L59.2,10 L62.4,10 L62.4,24 L45.34,24 Z M67.2061,12.8 L64.0461,12.8 L64.0461,10 L73.6261,10 L73.6261,12.8 L70.4461,12.8 L70.4461,24 L67.2061,24 L67.2061,12.8 Z M75.2619,10 L81.1219,10 C81.8952,10 82.5952,10.14 83.2219,10.42 C83.8485,10.6867 84.3819,11.0533 84.8219,11.52 C85.2752,11.9733 85.6219,12.5067 85.8619,13.12 C86.1019,13.7333 86.2219,14.38 86.2219,15.06 C86.2219,15.74 86.1019,16.3867 85.8619,17 C85.6219,17.6133 85.2752,18.1533 84.8219,18.62 C84.3819,19.0733 83.8485,19.44 83.2219,19.72 C82.5952,19.9867 81.8952,20.12 81.1219,20.12 L78.5019,20.12 L78.5019,24 L75.2619,24 L75.2619,10 Z M80.7219,17.48 C81.0552,17.48 81.3619,17.4133 81.6419,17.28 C81.9219,17.1467 82.1552,16.9733 82.3419,16.76 C82.5419,16.5333 82.6952,16.2733 82.8019,15.98 C82.9085,15.6867 82.9619,15.38 82.9619,15.06 C82.9619,14.74 82.9085,14.4333 82.8019,14.14 C82.6952,13.8467 82.5419,13.5933 82.3419,13.38 C82.1552,13.1533 81.9219,12.9733 81.6419,12.84 C81.3619,12.7067 81.0552,12.64 80.7219,12.64 L78.5019,12.64 L78.5019,17.48 L80.7219,17.48 Z M92.0644,14 L90.3444,19.76 L93.7444,19.76 L92.0644,14 Z M95.0844,24 L94.5444,22.3 L89.5644,22.3 L89.0244,24 L85.5644,24 L90.5644,10 L93.5444,10 L98.6044,24 L95.0844,24 Z M107.608,22.5 L107.608,24 L104.568,24 L104.568,22.5 L103.768,22.5 C102.914,22.5 102.148,22.3533 101.468,22.06 C100.801,21.7533 100.228,21.3467 99.7477,20.84 C99.281,20.3333 98.921,19.7467 98.6677,19.08 C98.4277,18.4133 98.3077,17.7133 98.3077,16.98 C98.3077,16.26 98.4277,15.5667 98.6677,14.9 C98.921,14.2333 99.281,13.6533 99.7477,13.16 C100.228,12.6533 100.801,12.2533 101.468,11.96 C102.148,11.6533 102.914,11.5 103.768,11.5 L104.568,11.5 L104.568,10 L107.608,10 L107.608,11.5 L108.408,11.5 C109.261,11.5 110.021,11.6533 110.688,11.96 C111.368,12.2533 111.941,12.6533 112.408,13.16 C112.888,13.6533 113.248,14.2333 113.488,14.9 C113.741,15.5667 113.868,16.26 113.868,16.98 C113.868,17.7133 113.741,18.4133 113.488,19.08 C113.248,19.7467 112.888,20.3333 112.408,20.84 C111.941,21.3467 111.368,21.7533 110.688,22.06 C110.021,22.3533 109.261,22.5 108.408,22.5 L107.608,22.5 Z M107.608,14.22 L107.608,19.78 L108.408,19.78 C108.768,19.78 109.088,19.7067 109.368,19.56 C109.648,19.4133 109.888,19.22 110.088,18.98 C110.288,18.7267 110.441,18.4333 110.548,18.1 C110.654,17.7533 110.708,17.38 110.708,16.98 C110.708,16.5933 110.654,16.2333 110.548,15.9 C110.441,15.5533 110.288,15.26 110.088,15.02 C109.888,14.7667 109.648,14.5733 109.368,14.44 C109.088,14.2933 108.768,14.22 108.408,14.22 L107.608,14.22 Z M104.568,19.78 L104.568,14.22 L103.768,14.22 C103.408,14.22 103.088,14.2933 102.808,14.44 C102.528,14.5733 102.288,14.7667 102.088,15.02 C101.888,15.26 101.734,15.5533 101.628,15.9 C101.521,16.2333 101.468,16.5933 101.468,16.98 C101.468,17.38 101.521,17.7533 101.628,18.1 C101.734,18.4333 101.888,18.7267 102.088,18.98 C102.288,19.22 102.528,19.4133 102.808,19.56 C103.088,19.7067 103.408,19.78 103.768,19.78 L104.568,19.78 Z M122.392,24.36 C121.232,24.36 120.192,24.16 119.272,23.76 C118.352,23.3467 117.572,22.8 116.932,22.12 C116.292,21.44 115.805,20.66 115.472,19.78 C115.139,18.8867 114.972,17.96 114.972,17 C114.972,16.04 115.139,15.12 115.472,14.24 C115.805,13.3467 116.292,12.56 116.932,11.88 C117.572,11.2 118.352,10.66 119.272,10.26 C120.192,9.84667 121.232,9.64 122.392,9.64 C123.552,9.64 124.585,9.84667 125.492,10.26 C126.412,10.66 127.192,11.2 127.832,11.88 C128.472,12.56 128.959,13.3467 129.292,14.24 C129.625,15.12 129.792,16.04 129.792,17 C129.792,17.96 129.625,18.8867 129.292,19.78 C128.959,20.66 128.472,21.44 127.832,22.12 C127.192,22.8 126.412,23.3467 125.492,23.76 C124.585,24.16 123.552,24.36 122.392,24.36 Z M122.392,21.44 C123.032,21.44 123.605,21.32 124.112,21.08 C124.619,20.8267 125.045,20.4933 125.392,20.08 C125.752,19.6667 126.025,19.1933 126.212,18.66 C126.399,18.1267 126.492,17.5733 126.492,17 C126.492,16.4267 126.399,15.8733 126.212,15.34 C126.025,14.8067 125.752,14.3333 125.392,13.92 C125.045,13.5067 124.619,13.18 124.112,12.94 C123.605,12.6867 123.032,12.56 122.392,12.56 C121.752,12.56 121.179,12.6867 120.672,12.94 C120.165,13.18 119.732,13.5067 119.372,13.92 C119.025,14.3333 118.759,14.8067 118.572,15.34 C118.385,15.8733 118.292,16.4267 118.292,17 C118.292,17.5733 118.385,18.1267 118.572,18.66 C118.759,19.1933 119.025,19.6667 119.372,20.08 C119.732,20.4933 120.165,20.8267 120.672,21.08 C121.179,21.32 121.752,21.44 122.392,21.44 Z M131.766,10 L137.586,10 C138.546,10 139.319,10.1333 139.906,10.4 C140.506,10.6533 140.966,10.9733 141.286,11.36 C141.606,11.7333 141.819,12.14 141.926,12.58 C142.046,13.02 142.106,13.42 142.106,13.78 C142.106,14.22 142.032,14.62 141.886,14.98 C141.739,15.3267 141.546,15.6333 141.306,15.9 C141.066,16.1667 140.799,16.3867 140.506,16.56 C140.226,16.72 139.946,16.8333 139.666,16.9 C139.892,16.9 140.152,16.9733 140.446,17.12 C140.739,17.2533 141.019,17.4533 141.286,17.72 C141.552,17.9733 141.772,18.3 141.946,18.7 C142.132,19.1 142.226,19.56 142.226,20.08 C142.226,20.44 142.166,20.8467 142.046,21.3 C141.926,21.7533 141.699,22.18 141.366,22.58 C141.032,22.98 140.566,23.32 139.966,23.6 C139.366,23.8667 138.586,24 137.626,24 L131.766,24 L131.766,10 Z M136.926,15.7 C137.326,15.7 137.652,15.6467 137.906,15.54 C138.159,15.4333 138.359,15.3 138.506,15.14 C138.652,14.9667 138.752,14.78 138.806,14.58 C138.859,14.38 138.886,14.1933 138.886,14.02 C138.886,13.86 138.859,13.6867 138.806,13.5 C138.766,13.3133 138.672,13.14 138.526,12.98 C138.392,12.8067 138.192,12.6667 137.926,12.56 C137.672,12.44 137.339,12.38 136.926,12.38 L135.006,12.38 L135.006,15.7 L136.926,15.7 Z M135.006,18.08 L135.006,21.52 L137.006,21.52 C137.406,21.52 137.732,21.4667 137.986,21.36 C138.239,21.2533 138.439,21.12 138.586,20.96 C138.732,20.7867 138.832,20.6 138.886,20.4 C138.939,20.2 138.966,20 138.966,19.8 C138.966,19.64 138.939,19.46 138.886,19.26 C138.832,19.06 138.732,18.8733 138.586,18.7 C138.439,18.5267 138.239,18.38 137.986,18.26 C137.732,18.14 137.412,18.08 137.026,18.08 L135.006,18.08 Z M157.923,17.86 L151.403,17.86 L151.403,24 L149.583,24 L149.583,10 L151.403,10 L151.403,16.22 L157.923,16.22 L157.923,10 L159.743,10 L159.743,24 L157.923,24 L157.923,17.86 Z M164.685,11.64 L164.685,16.22 L170.725,16.22 L170.725,17.86 L164.685,17.86 L164.685,22.36 L170.725,22.36 L170.725,24 L162.865,24 L162.865,10 L170.725,10 L170.725,11.64 L164.685,11.64 Z M176.044,11.64 L172.424,11.64 L172.424,10 L181.504,10 L181.504,11.64 L177.864,11.64 L177.864,24 L176.044,24 L176.044,11.64 Z" id="Shape" fill="#000000" fill-rule="nonzero"></path>
            <rect id="Rectangle" fill="#63C556" x="0" y="0" width="34" height="34" rx="4"></rect>
            <polygon id="Path" fill="#FFFFFF" points="8.33984 24 8.33984 10 11.5598 10 11.5598 21.24 15.2598 21.24 15.2598 14 18.4798 14 18.4798 21.24 22.1998 21.24 22.1998 10 25.3998 10 25.3998 24"></polygon>
        </g>
    </g>
</svg>
